<svg width="62" height="62" viewBox="0 0 62 62" fill="none" xmlns="http://www.w3.org/2000/svg">
<path d="M55.1111 27.6933V24.1111C55.1111 10.8156 44.2956 0 31 0C17.7044 0 6.88889 10.8156 6.88889 24.1111V27.6933C2.96222 28.3133 0 31.7578 0 35.8222C0 39.8867 2.96222 43.3311 6.88889 43.9511V44.0889C6.88889 46.7756 9.02444 48.9111 11.7111 48.9111C14.3978 48.9111 16.5333 46.7756 16.5333 44.0889V27.5556C16.5333 24.8689 14.3978 22.7333 11.7111 22.7333C10.9533 22.7333 10.2644 22.8711 9.64444 23.2156C10.1267 11.8489 19.4956 2.75556 31 2.75556C42.5044 2.75556 51.8733 11.8489 52.3556 23.2156C51.7356 22.94 51.0467 22.7333 50.2889 22.7333C47.6022 22.7333 45.4667 24.8689 45.4667 27.5556V44.0889C45.4667 46.7756 47.6022 48.9111 50.2889 48.9111C52.9756 48.9111 55.1111 46.7756 55.1111 44.0889V43.9511C56.6956 43.6756 58.0733 42.9867 59.2444 41.9533V42.7111C59.2444 49.5311 53.6644 55.1111 46.8444 55.1111H41.8156C41.1956 52.7689 39.06 50.9778 36.5111 50.9778C33.48 50.9778 31 53.4578 31 56.4889C31 59.52 33.48 62 36.5111 62C39.06 62 41.1956 60.2089 41.8156 57.8667H46.8444C55.18 57.8667 62 51.0467 62 42.7111V35.8222C62 31.7578 59.0378 28.3133 55.1111 27.6933ZM6.88889 41.1267C4.54667 40.5067 2.75556 38.3711 2.75556 35.8222C2.75556 33.2733 4.54667 31.0689 6.88889 30.5178V41.1267ZM11.7111 25.4889C12.8822 25.4889 13.7778 26.3844 13.7778 27.5556V44.0889C13.7778 45.1911 12.8822 46.1556 11.7111 46.1556C10.54 46.1556 9.64444 45.1911 9.64444 44.0889V27.5556C9.64444 26.3844 10.54 25.4889 11.7111 25.4889ZM52.3556 44.0889C52.3556 45.1911 51.46 46.1556 50.2889 46.1556C49.1178 46.1556 48.2222 45.1911 48.2222 44.0889V27.5556C48.2222 26.3844 49.1178 25.4889 50.2889 25.4889C51.46 25.4889 52.3556 26.3844 52.3556 27.5556V44.0889ZM36.5111 59.2444C34.9956 59.2444 33.7556 58.0044 33.7556 56.4889C33.7556 54.9733 34.9956 53.7333 36.5111 53.7333C38.0267 53.7333 39.2667 54.9733 39.2667 56.4889C39.2667 58.0044 38.0267 59.2444 36.5111 59.2444ZM55.1111 41.1267V30.5178C57.4533 31.1378 59.2444 33.2733 59.2444 35.8222C59.2444 38.3711 57.4533 40.5067 55.1111 41.1267ZM32.1711 40.0244L34.5133 36.5111H37.2C39.4733 36.5111 41.3333 34.6511 41.3333 32.3778V24.1111C41.3333 21.8378 39.4733 19.9778 37.2 19.9778H24.8C22.5267 19.9778 20.6667 21.8378 20.6667 24.1111V32.3778C20.6667 34.6511 22.5267 36.5111 24.8 36.5111H27.4867L29.8289 40.0244C30.1044 40.4378 30.5178 40.6444 31 40.6444C31.4822 40.6444 31.8956 40.4378 32.1711 40.0244ZM29.4156 34.3756C29.14 33.9622 28.7267 33.7556 28.2444 33.7556H24.8C24.0422 33.7556 23.4222 33.1356 23.4222 32.3778V24.1111C23.4222 23.3533 24.0422 22.7333 24.8 22.7333H37.2C37.9578 22.7333 38.5778 23.3533 38.5778 24.1111V32.3778C38.5778 33.1356 37.9578 33.7556 37.2 33.7556H33.7556C33.2733 33.7556 32.86 33.9622 32.5844 34.3756L31 36.7867L29.4156 34.3756ZM33.7556 29.6222H28.2444C27.4867 29.6222 26.8667 29.0022 26.8667 28.2444C26.8667 27.4867 27.4867 26.8667 28.2444 26.8667H33.7556C34.5133 26.8667 35.1333 27.4867 35.1333 28.2444C35.1333 29.0022 34.5133 29.6222 33.7556 29.6222Z" fill="#0F2421"/>
</svg>
