<svg width="83" height="55" viewBox="0 0 83 55" fill="none" xmlns="http://www.w3.org/2000/svg">
<path d="M42.0504 0.594961L42.0655 0.600994L42.081 0.606035L67.425 8.87985C68.1243 9.16537 68.5779 9.77854 68.5779 10.5014V43.705C68.5779 44.464 68.0931 45.1255 67.4527 45.3177L67.4527 45.3175L67.4397 45.3218L42.0795 53.688L42.078 53.6885C41.8994 53.7481 41.7958 53.75 41.539 53.75C41.2821 53.75 41.1785 53.7481 40.9999 53.6885L40.9969 53.6875L15.6529 45.4137C14.9536 45.1282 14.5 44.515 14.5 43.7922V10.5014C14.5 9.74245 14.9848 9.08088 15.6252 8.88875L15.6252 8.88889L15.6367 8.88515L40.9969 0.606045L40.9999 0.605065C41.4312 0.461305 41.7431 0.47202 42.0504 0.594961ZM39.2045 49.5834L39.2804 49.6082H39.3602H39.4474H39.9474V49.1082V20.3492V19.9852L39.601 19.8734L31.2348 17.1718L30.5811 16.9607V17.6476V32.4629C30.5811 33.4068 29.8463 34.1416 28.9024 34.1416C27.9585 34.1416 27.2237 33.4068 27.2237 32.4629V16.1661V15.8021L26.8773 15.6903L18.5111 12.9886L17.8574 12.7776V13.4645V42.2235V42.5858L18.2017 42.6986L39.2045 49.5834ZM41.385 16.9904L41.5398 17.0404L41.6944 16.9899L60.0827 10.9766L61.536 10.5014L60.0827 10.0262L41.6944 4.01292L41.539 3.9621L41.3835 4.01292L22.9952 10.0262L21.5449 10.5004L22.9946 10.9765L28.8336 12.8937L28.9981 12.9477L29.1608 12.8884L38.473 9.49426C39.3727 9.22344 40.3044 9.64308 40.6365 10.5066C40.9631 11.3557 40.5185 12.2989 39.6224 12.6469L35.4459 14.1261L34.0547 14.6188L35.4589 15.0731L41.385 16.9904ZM64.8741 42.6993L65.2205 42.5875V42.2235V13.4645V12.7744L64.5647 12.9893L43.5619 19.8741L43.2177 19.9869V20.3492V49.1082V49.7951L43.8713 49.584L52.2376 46.8824L52.5839 46.7706V46.4066V35.5131C52.5839 34.5418 53.2581 33.8343 54.1755 33.8343C55.1194 33.8343 55.8542 34.5691 55.8542 35.5131V44.9251V45.612L56.5079 45.4009L64.8741 42.6993Z" fill="#0F2421" stroke="white"/>
</svg>
