<svg width="55" height="54" viewBox="0 0 55 54" fill="none" xmlns="http://www.w3.org/2000/svg">
<path d="M53.2523 48.1846H50.8431V21.9323C52.7538 21.3508 54.0831 19.6062 54.0831 17.5292V13.9569C54.1662 13.5415 54 13.2923 53.7508 13.1262L46.2738 5.06769V3.32308C46.2738 1.49538 44.7785 0 42.9508 0H11.1323C9.30462 0 7.80923 1.49538 7.80923 3.32308V5.06769C-0.332307 13.8738 0.166154 13.2923 0.0830769 13.4585C0.0830769 13.5415 0 13.7908 0 13.7908V17.5292C0 19.6062 1.32923 21.3508 3.24 21.9323V48.1846H0.913846C0.415385 48.1846 0.0830769 48.5169 0.0830769 49.0154V53.1692C0.0830769 53.6677 0.415385 54 0.913846 54H53.2523C53.7508 54 54.0831 53.6677 54.0831 53.1692V49.0154C54.0831 48.6 53.7508 48.1846 53.2523 48.1846ZM48.3508 20.1877C46.1077 19.1908 46.6892 16.6985 46.6062 14.6215H52.4215V17.5292C52.4215 19.6062 50.2615 21.0185 48.3508 20.1877ZM42.0369 20.4369C40.4585 20.4369 39.1292 19.1077 39.1292 17.5292V14.6215H44.9446V17.5292C44.9446 19.1908 43.6154 20.4369 42.0369 20.4369ZM34.56 20.4369C32.9815 20.4369 31.6523 19.1077 31.6523 17.5292V14.6215H37.4677V17.5292C37.4677 19.1908 36.0554 20.4369 34.56 20.4369ZM27.0831 20.4369C25.5046 20.4369 24.1754 19.1077 24.1754 17.5292V14.6215H29.9908V17.5292C29.9908 19.1908 28.6615 20.4369 27.0831 20.4369ZM19.6062 20.4369C18.0277 20.4369 16.6985 19.1077 16.6985 17.5292V14.6215H22.5138V17.5292C22.5138 19.1908 21.1846 20.4369 19.6062 20.4369ZM12.1292 20.4369C10.5508 20.4369 9.22154 19.1077 9.22154 17.5292V14.6215H15.0369V17.5292C15.0369 19.1077 13.7077 20.4369 12.1292 20.4369ZM9.05539 6.23077H12.3785L7.97539 12.96H2.82462L9.05539 6.23077ZM51.3415 12.96H46.1908L41.7877 6.23077H45.1108L51.3415 12.96ZM39.7938 6.23077L44.28 12.96H38.88L36.2215 6.23077H39.7938ZM34.3938 6.23077L37.0523 12.96H31.5692L30.8215 7.22769L30.6554 6.23077H34.3938ZM28.9938 6.23077L29.9077 12.96H24.3415L25.1723 6.23077H28.9938ZM22.5969 12.96H17.1138L19.7723 6.23077H23.5108L22.5969 12.96ZM15.2862 12.96H9.88615L14.3723 6.23077H17.9446L15.2862 12.96ZM9.55385 3.32308C9.55385 2.40923 10.3015 1.66154 11.2154 1.66154H43.0338C43.9477 1.66154 44.6954 2.40923 44.6954 3.32308V4.56923C31.2369 4.56923 21.8492 4.56923 9.55385 4.56923V3.32308ZM1.74462 17.5292V14.6215H7.56V17.5292C7.56 19.0246 6.31385 20.4369 4.65231 20.4369C4.65231 20.4369 4.65231 20.4369 4.56923 20.4369C2.99077 20.4369 1.74462 19.1077 1.74462 17.5292ZM4.98462 22.0985C6.31385 22.0154 7.56 21.2677 8.39077 20.1877C9.80308 22.2646 12.2123 22.1815 12.1292 22.0985C13.6246 22.0985 15.0369 21.3508 15.8677 20.1877C16.6154 21.2677 18.0277 22.0985 19.5231 22.0985C19.5231 22.0985 19.5231 22.0985 19.6062 22.0985C21.1015 22.0985 22.5138 21.3508 23.3446 20.1877C24.0923 21.2677 25.5046 22.0985 27 22.0985C27 22.0985 27 22.0985 27.0831 22.0985C28.6615 22.0985 29.9908 21.2677 30.8215 20.1877C31.5692 21.3508 32.9815 22.0985 34.4769 22.0985C34.4769 22.0985 34.4769 22.0985 34.56 22.0985C36.0554 22.0985 37.4677 21.3508 38.2985 20.1877C39.1292 21.3508 40.4585 22.0985 41.9538 22.0985C41.9538 22.0985 41.9538 22.0985 42.0369 22.0985C43.5323 22.0985 44.9446 21.3508 45.7754 20.1877C46.6062 21.3508 47.8523 22.0154 49.1815 22.0985V48.1846H45.8585V27.3323C45.8585 26.8338 45.5262 26.5015 45.0277 26.5015H32.4831C31.9846 26.5015 31.6523 26.8338 31.6523 27.3323V48.1846H4.98462V22.0985ZM33.3138 38.9631H34.56C35.0585 38.9631 35.3908 38.6308 35.3908 38.1323C35.3908 37.6338 35.0585 37.3015 34.56 37.3015H33.3138V28.1631H44.1969V48.1846H33.3138V38.9631ZM52.4215 52.3385H1.74462V49.8462C1.41231 49.8462 5.81538 49.8462 52.4215 49.8462V52.3385Z" fill="#0F2421"/>
<path d="M25.1723 26.5015H10.8C10.3015 26.5015 9.96924 26.8338 9.96924 27.3322V40.4584C9.96924 40.9568 10.3015 41.2892 10.8 41.2892H25.0892C25.5877 41.2892 25.92 40.9568 25.92 40.4584V27.3322C26.0031 26.8338 25.5877 26.5015 25.1723 26.5015ZM24.3415 33.0645H18.8585V28.163H24.3415V33.0645ZM17.1139 28.163V33.0645H11.6308V28.163H17.1139ZM11.6308 34.7261H17.1139V39.6276H11.6308V34.7261ZM18.7754 39.6276V34.7261H24.2585V39.6276H18.7754Z" fill="#0F2421"/>
</svg>
