<svg width="23" height="26" viewBox="0 0 23 26" fill="none" xmlns="http://www.w3.org/2000/svg">
<path d="M23 21.3871V7.12903H16.4286V5.03226C16.4286 3.69762 15.9093 2.41765 14.985 1.47391C14.0607 0.530183 12.8071 0 11.5 0C10.1929 0 8.93926 0.530183 8.01497 1.47391C7.09069 2.41765 6.57143 3.69762 6.57143 5.03226V7.12903H0V21.3871C0 22.6105 0.475987 23.7838 1.32325 24.6489C2.17051 25.514 3.31965 26 4.51786 26H18.4821C19.6804 26 20.8295 25.514 21.6768 24.6489C22.524 23.7838 23 22.6105 23 21.3871ZM9.03571 5.03226C9.03571 4.36494 9.29534 3.72495 9.75749 3.25309C10.2196 2.78122 10.8464 2.51613 11.5 2.51613C12.1536 2.51613 12.7804 2.78122 13.2425 3.25309C13.7047 3.72495 13.9643 4.36494 13.9643 5.03226V7.12903H9.03571V5.03226ZM2.46429 21.3871V9.64516H6.57143V13.4194H9.03571V9.64516H13.9643V13.4194H16.4286V9.64516H20.5357V21.3871C20.5357 21.9432 20.3194 22.4765 19.9342 22.8697C19.5491 23.263 19.0268 23.4839 18.4821 23.4839H4.51786C3.97322 23.4839 3.45088 23.263 3.06576 22.8697C2.68064 22.4765 2.46429 21.9432 2.46429 21.3871Z" fill="#151442"/>
</svg>
